<?xml version="1.0" standalone="no"?><!DOCTYPE svg PUBLIC "-//W3C//DTD SVG 1.1//EN" "http://www.w3.org/Graphics/SVG/1.1/DTD/svg11.dtd"><svg t="1712842791573" class="icon" viewBox="0 0 1027 1024" version="1.1" xmlns="http://www.w3.org/2000/svg" p-id="7706" xmlns:xlink="http://www.w3.org/1999/xlink" width="200.5859375" height="200"><path d="M514.591468 0c-282.099783 0-510.889371 228.789588-510.889371 510.889371s228.789588 510.889371 510.889371 510.889371 510.889371-228.789588 510.889371-510.889371-228.789588-510.889371-510.889371-510.889371z m-20.731743 297.64859c18.510484-8.885033 37.761388-17.770065 56.271873-26.655098 18.510484-8.885033 32.578453-15.548807 42.944324-20.731742 15.548807-7.404194 29.616775-11.106291 42.203904-10.365871 12.587129 0.740419 22.953001 2.221258 31.097614 5.923355 9.625452 4.442516 18.510484 10.365871 25.914679 17.770065l39.242227 66.637744H425.000723c23.69342-11.106291 46.646421-22.212581 68.859002-32.578453z m309.4953 194.730296H658.973247c-16.289226 0-29.616775 5.182936-40.723066 16.289227-11.106291 10.365871-17.029646 25.174259-17.029646 40.723066 0.740419 11.106291 2.961678 20.731743 6.663774 29.616775 3.702097 7.404194 8.885033 14.067968 17.029646 19.991323 8.144613 5.923355 19.250904 8.885033 34.059292 8.885032h144.381778v115.505423c0 7.404194-1.480839 15.548807-4.442516 22.212582-2.961678 6.663774-6.663774 13.327549-11.84671 18.510484-10.365871 11.106291-25.174259 17.029646-39.982646 17.029646H285.80188c-8.144613 0-15.548807-1.480839-22.953001-4.442516-7.404194-2.961678-13.327549-7.404194-19.250904-12.58713-5.182936-5.182936-9.625452-11.106291-13.327548-18.510484-2.961678-7.404194-4.442516-14.808388-4.442517-22.953001V406.490239c0-16.289226 5.923355-29.616775 17.029646-40.723066 11.106291-11.106291 25.174259-17.029646 40.723066-17.029646h461.281272c16.289226 0 29.616775 5.923355 40.723066 17.029646 11.106291 11.106291 17.029646 25.174259 17.029646 40.723066v85.888647z m-125.871294 62.935648c0 7.404194-2.961678 14.067968-8.144613 19.250903-5.182936 5.182936-11.84671 8.144613-19.250904 8.144614s-14.067968-2.961678-19.250904-8.144614c-5.182936-5.182936-8.144613-11.84671-8.144613-19.250903s2.961678-14.067968 8.144613-19.250904c5.182936-5.182936 11.84671-8.144613 19.250904-7.404194 7.404194 0 14.067968 2.961678 19.250904 7.404194 5.182936 5.182936 8.144613 12.587129 8.144613 19.250904z" fill="#F97D1D" p-id="7707"></path></svg>