<?xml version="1.0" standalone="no"?><!DOCTYPE svg PUBLIC "-//W3C//DTD SVG 1.1//EN" "http://www.w3.org/Graphics/SVG/1.1/DTD/svg11.dtd"><svg t="1712842752188" class="icon" viewBox="0 0 1024 1024" version="1.1" xmlns="http://www.w3.org/2000/svg" p-id="4861" xmlns:xlink="http://www.w3.org/1999/xlink" width="200" height="200"><path d="M511.982933 1024c-282.7776 0-512-229.239467-512-512 0-282.7776 229.2224-512 512-512 282.760533 0 512 229.2224 512 512 0 282.760533-229.239467 512-512 512z m187.938134-563.882667c0-24.285867-19.421867-43.997867-43.332267-43.997866h-39.594667l69.956267-71.048534a44.680533 44.680533 0 0 0 0-62.481066 42.888533 42.888533 0 0 0-61.405867 0l-106.530133 108.117333-119.995733-121.992533a42.837333 42.837333 0 0 0-61.201067 0 44.475733 44.475733 0 0 0 0 62.1568l83.8144 85.1456h-54.152533c-23.927467 0-43.332267 19.712-43.332267 43.997866v0.6144c0 24.302933 19.4048 43.997867 43.332267 43.997867h100.881066v57.873067h-100.881066c-23.927467 0-43.332267 19.712-43.332267 44.014933v0.6144c0 24.285867 19.4048 43.997867 43.332267 43.997867h100.881066v72.994133c0 24.285867 19.4048 43.9808 43.3152 43.9808h0.597334c23.927467 0 43.3152-19.694933 43.3152-43.9808v-72.994133h100.898133c23.927467 0 43.3152-19.712 43.3152-43.997867v-0.6144c0-24.302933-19.387733-44.014933-43.3152-44.014933h-100.898133v-57.873067h100.898133c23.927467 0 43.3152-19.694933 43.3152-43.997867h0.119467v-0.512z" fill="#F8A42F" p-id="4862"></path></svg>